<svg style="display: none;" aria-hidden="true" xmlns="http://www.w3.org/2000/svg" xmlns:xlink="http://www.w3.org/1999/xlink"><symbol viewBox="0 0 12 12" fill="none" id="svg-arrow" xmlns="http://www.w3.org/2000/svg">
<path d="M6 9.52467C5.8565 9.52467 5.71767 9.49776 5.5835 9.44395C5.44861 9.39014 5.33632 9.31839 5.24664 9.2287L0.295964 4.27803C0.0986543 4.08072 0 3.8296 0 3.52467C0 3.21974 0.0986543 2.96861 0.295964 2.77131C0.493273 2.574 0.744394 2.47534 1.04933 2.47534C1.35426 2.47534 1.60538 2.574 1.80269 2.77131L6 6.96862L10.1973 2.77131C10.3946 2.574 10.6457 2.47534 10.9507 2.47534C11.2556 2.47534 11.5067 2.574 11.704 2.77131C11.9013 2.96861 12 3.21974 12 3.52467C12 3.8296 11.9013 4.08072 11.704 4.27803L6.75336 9.2287C6.64574 9.33633 6.52915 9.41238 6.40359 9.45687C6.27803 9.50207 6.1435 9.52467 6 9.52467Z" fill="#454D54"/>
</symbol><symbol viewBox="0 0 40 40" fill="none" id="svg-logo" xmlns="http://www.w3.org/2000/svg">
<path d="M24.6658 0.00195312C16.2056 0.00195312 9.33164 6.87067 9.33164 15.3309C9.33164 23.7911 16.2056 30.6651 24.6658 30.6651C33.1261 30.6651 40 23.7911 40 15.3309C40 6.87067 33.1261 0.00195312 24.6658 0.00195312ZM24.6658 2.55132C31.7173 2.55132 37.4467 8.27938 37.4467 15.3309C37.4467 22.3824 31.7173 28.117 24.6658 28.117C17.6143 28.117 11.881 22.3824 11.881 15.3309C11.881 8.27938 17.6143 2.55132 24.6658 2.55132ZM24.6658 6.66576C19.8874 6.66576 16.0007 10.5525 16.0007 15.3309C15.9806 16.2397 17.3542 16.2397 17.334 15.3309C17.334 11.273 20.6079 7.99907 24.6658 7.99907C28.7237 7.99907 31.9989 11.273 31.9989 15.3309C31.9788 16.2397 33.3524 16.2397 33.3322 15.3309C33.3322 10.5525 29.4442 6.66576 24.6658 6.66576ZM24.6658 9.33239C23.757 9.31223 23.757 10.6859 24.6658 10.6657C27.251 10.6657 29.331 12.7457 29.331 15.3309C29.331 17.9219 28.5581 20.329 27.2256 22.3346C26.6455 23.0884 27.8592 23.898 28.3324 23.0728C29.8048 20.8565 30.6643 18.1885 30.6643 15.3309C30.6643 12.0252 27.9715 9.33239 24.6658 9.33239ZM22.0461 10.016C21.9095 10.0235 21.8082 10.0535 21.718 10.1059C19.8958 11.1359 18.6673 13.0943 18.6673 15.331C18.6673 16.3262 17.9493 17.143 17.0085 17.3049C16.1116 17.441 16.3444 18.7909 17.2351 18.6187C18.8059 18.3484 20.0006 16.9708 20.0006 15.331C20.0006 13.5818 20.9562 12.0681 22.3729 11.2673C22.9669 10.9427 22.7551 10.0413 22.0461 10.016L22.0461 10.016ZM24.6658 12.0002C22.8328 12.0002 21.3352 13.4979 21.3352 15.3309C21.3352 17.374 20.0277 19.1048 18.2103 19.7409C17.2792 19.9846 17.7669 21.384 18.6478 20.9961C20.9891 20.1766 22.6685 17.9434 22.6685 15.3309C22.6685 14.2185 23.5534 13.3336 24.6658 13.3336C25.7783 13.3336 26.6645 14.2185 26.6645 15.3309C26.6836 16.2003 27.9785 16.2003 27.9978 15.3309C27.9978 13.4979 26.4988 12.0002 24.6658 12.0002V12.0002ZM24.6567 14.6577C24.2886 14.6602 23.993 14.9628 23.9966 15.3309C23.9966 18.0662 22.5087 20.4473 20.2962 21.7096C19.4453 22.1255 20.1635 23.3859 20.955 22.8658C23.5704 21.3737 25.3299 18.5519 25.3299 15.3309C25.3332 14.9576 25.03 14.6541 24.6567 14.6577ZM26.9783 17.379C26.6543 17.3967 26.4084 17.6025 26.339 17.8855C25.8317 19.8155 24.761 21.5183 23.313 22.8072C22.5673 23.3914 23.5327 24.4745 24.1984 23.8007C25.8382 22.3409 27.0538 20.4095 27.6293 18.2201C27.7429 17.8056 27.441 17.3942 26.9783 17.379V17.379ZM11.5126 25.5441L10.6103 26.4477L13.5503 29.393L14.4565 28.4867C13.3575 27.6314 12.3681 26.6431 11.5126 25.5441ZM8.65722 26.6652C8.48339 26.6677 8.31755 26.7385 8.19499 26.8617L1.02073 34.036C-0.340243 35.397 -0.340243 37.6163 1.02073 38.9773C2.3817 40.3382 4.59972 40.3382 5.96069 38.9773L13.1363 31.803C13.3948 31.5429 13.3948 31.123 13.1363 30.863L9.14028 26.8617C9.01264 26.7332 8.83826 26.6624 8.65722 26.6652H8.65722Z" fill="#2C363F"/>
</symbol><symbol viewBox="0 0 12 12" fill="none" id="svg-search" xmlns="http://www.w3.org/2000/svg">
<g clip-path="url(#cclip0_110_711)">
<path d="M11.7252 10.3981L8.92001 7.59293C9.55791 6.64592 9.87264 5.46269 9.70415 4.20189C9.41683 2.05735 7.65921 0.312146 5.51256 0.0403704C2.32094 -0.363485 -0.362833 2.32029 0.0410463 5.5119C0.312892 7.65949 2.05833 9.41852 4.2031 9.70443C5.46391 9.8729 6.64738 9.55829 7.59415 8.92029L10.3993 11.7255C10.7654 12.0915 11.359 12.0915 11.725 11.7255C12.0908 11.3589 12.0908 10.7637 11.7252 10.3981ZM1.85435 4.87447C1.85435 3.22043 3.19999 1.87479 4.85404 1.87479C6.50808 1.87479 7.85372 3.22043 7.85372 4.87447C7.85372 6.52851 6.50808 7.87415 4.85404 7.87415C3.19999 7.87415 1.85435 6.52898 1.85435 4.87447Z" fill="#454D54"/>
</g>
<defs>
<clipPath id="cclip0_110_711">
<rect width="12" height="12" fill="white"/>
</clipPath>
</defs>
</symbol></svg>