<svg width="200" height="33" viewBox="0 0 200 33" fill="none" xmlns="http://www.w3.org/2000/svg">
<g clip-path="url(#clip0_110_284)">
<path d="M46.2527 7.79099H51.9794C54.718 7.79099 56.7928 8.48403 58.2037 9.8685C59.6143 11.2543 60.32 13.2324 60.32 15.803V17.1964C60.32 19.7344 59.6061 21.705 58.1783 23.1063C56.7507 24.5081 54.6844 25.209 51.979 25.209H46.2527V7.79099ZM49.2404 10.4283V22.5711H51.9794C53.7054 22.5711 55.0042 22.1315 55.8756 21.2527C56.7474 20.3732 57.1825 19.0214 57.1825 17.1964V15.803C57.1825 13.9958 56.7427 12.6475 55.8631 11.7596C54.9835 10.8729 53.6883 10.4283 51.979 10.4283H49.2404Z" fill="#28334A"/>
<path d="M68.281 25.4332C66.4052 25.4332 64.9406 24.9023 63.8866 23.8407C62.8323 22.7792 62.3059 21.2941 62.3059 19.3866V18.59C62.3059 17.6445 62.4428 16.7989 62.7165 16.0519C62.9902 15.3056 63.3888 14.6711 63.9116 14.1487C64.4343 13.6263 65.061 13.2281 65.7913 12.9542C66.5213 12.6807 67.3513 12.5433 68.281 12.5433C70.1567 12.5433 71.6213 13.0749 72.6756 14.1359C73.7297 15.1974 74.257 16.6825 74.257 18.59V19.3866C74.257 20.3321 74.1202 21.1777 73.8461 21.9247C73.572 22.671 73.174 23.3055 72.6509 23.8279C72.1279 24.3503 71.497 24.7485 70.7584 25.0223C70.0199 25.2955 69.1939 25.4332 68.281 25.4332ZM68.281 22.7453C69.2271 22.7453 69.9534 22.4718 70.4597 21.9244C70.966 21.3766 71.2193 20.5311 71.2193 19.3863V18.5897C71.2193 17.462 70.9574 16.62 70.435 16.0644C69.9123 15.5088 69.1939 15.231 68.2812 15.231C67.3351 15.231 66.6088 15.5045 66.1029 16.0519C65.5962 16.5996 65.3436 17.4452 65.3436 18.59V19.3866C65.3436 20.5142 65.6044 21.3563 66.1276 21.9119C66.6506 22.4675 67.3684 22.7453 68.281 22.7453Z" fill="#28334A"/>
<path d="M77.8066 24.1518C77.101 23.4466 76.7483 22.431 76.7483 21.1034V7.79099H79.6363V20.8049C79.6363 21.4512 79.7774 21.9247 80.0597 22.2232C80.3419 22.5217 80.7732 22.6713 81.3545 22.6713H81.9769V25.2094H80.8314C79.5202 25.209 78.5119 24.8563 77.8066 24.1518Z" fill="#28334A"/>
<path d="M90.3689 25.4333C88.8083 25.4333 87.5967 24.9435 86.7335 23.9647V30.1857H83.8455V12.7672H86.111L86.3851 14.4597C86.8164 13.8127 87.3684 13.3314 88.0404 13.0158C88.7129 12.7012 89.4886 12.543 90.3689 12.543C91.0824 12.543 91.7424 12.6719 92.3488 12.9287C92.9542 13.1868 93.472 13.5681 93.904 14.0734C94.336 14.5801 94.6757 15.2103 94.925 15.9652C95.1734 16.72 95.2985 17.5945 95.2985 18.5897V19.3863C95.2985 20.3815 95.1734 21.2524 94.925 21.999C94.6757 22.7453 94.3314 23.3763 93.8912 23.8901C93.4519 24.4047 92.9332 24.7902 92.3351 25.0467C91.7378 25.3041 91.0824 25.4333 90.3689 25.4333ZM89.4971 22.7453C90.3765 22.7453 91.0574 22.4804 91.5387 21.9494C92.02 21.4184 92.2611 20.5643 92.2611 19.3863V18.5897C92.2611 17.4449 92.0118 16.5994 91.514 16.0516C91.0163 15.5046 90.3443 15.2307 89.4974 15.2307C88.7011 15.2307 88.0494 15.5042 87.5427 16.0516C87.0364 16.5994 86.7667 17.3956 86.7335 18.4408V19.3863C86.7335 20.4808 86.9953 21.3142 87.5177 21.8869C88.0404 22.4593 88.7007 22.7453 89.4971 22.7453Z" fill="#28334A"/>
<path d="M97.7854 7.79099H100.674V13.8376C101.503 12.975 102.657 12.5433 104.134 12.5433C105.661 12.5433 106.852 12.9953 107.707 13.8998C108.562 14.8042 108.989 16.168 108.989 17.993V25.209H106.101V17.993C106.101 17.0806 105.881 16.3919 105.441 15.9277C105.001 15.4634 104.4 15.231 103.637 15.231C102.74 15.231 102.03 15.4713 101.508 15.9526C100.984 16.434 100.706 17.0724 100.674 17.8683V25.209H97.7854V7.79099Z" fill="#28334A"/>
<path d="M113.676 11.2746C113.144 11.2746 112.7 11.0967 112.343 10.7393C111.986 10.383 111.808 9.93916 111.808 9.4082C111.808 8.8772 111.986 8.43369 112.343 8.07698C112.7 7.7206 113.144 7.54175 113.676 7.54175C114.19 7.54175 114.63 7.72027 114.995 8.07698C115.36 8.43336 115.542 8.8772 115.542 9.4082C115.542 9.93916 115.36 10.3826 114.995 10.7393C114.63 11.0967 114.19 11.2746 113.676 11.2746ZM112.232 12.7672H115.12V25.209H112.232V12.7672Z" fill="#28334A"/>
<path d="M118.479 12.7672H120.744L120.968 14.1605C121.897 13.0826 123.184 12.543 124.827 12.543C126.353 12.543 127.545 12.9951 128.4 13.8995C129.255 14.8039 129.682 16.1677 129.682 17.9927V25.2091H126.794V17.993C126.794 17.0806 126.573 16.3919 126.133 15.9277C125.694 15.4635 125.092 15.2311 124.33 15.2311C123.433 15.2311 122.723 15.4713 122.2 15.9527C121.677 16.434 121.399 17.0724 121.366 17.8684V25.2091H118.479V12.7672Z" fill="#28334A"/>
<path d="M140.137 9.38356H138.991C137.099 9.38356 136.152 10.3787 136.152 12.3697V15.6038C136.152 16.3508 136.041 17.0184 135.816 17.6069C135.593 18.1968 135.099 18.6567 134.335 18.9885C134.717 19.1712 135.028 19.3784 135.268 19.6108C135.51 19.8433 135.696 20.1039 135.828 20.394C135.962 20.6846 136.048 20.9956 136.09 21.3273C136.131 21.659 136.152 22.0079 136.152 22.3721V25.6068C136.152 27.5979 137.099 28.5931 138.991 28.5931H140.137V30.1856H138.991C135.937 30.1856 134.41 28.6588 134.41 25.6068V22.3718C134.41 21.493 134.215 20.8584 133.825 20.4686C133.435 20.0786 132.965 19.8426 132.418 19.7591V18.2168C132.965 18.134 133.435 17.8973 133.825 17.5074C134.215 17.1174 134.41 16.4833 134.41 15.6035V12.3694C134.41 9.31744 135.937 7.79065 138.991 7.79065H140.137V9.38356Z" fill="#28334A"/>
<path d="M146.238 25.383C144.994 25.383 144.038 25.0641 143.375 24.4253C142.711 23.7869 142.379 22.9035 142.379 21.7752C142.379 21.1777 142.475 20.6346 142.666 20.1448C142.857 19.6555 143.163 19.2453 143.587 18.9135C144.01 18.5818 144.553 18.3244 145.218 18.1416C145.881 17.9595 146.678 17.868 147.608 17.868H150.446V16.7483C150.446 15.8531 150.225 15.1932 149.787 14.7701C149.346 14.3476 148.62 14.1355 147.608 14.1355C146.695 14.1355 146.01 14.3141 145.553 14.6708C145.098 15.0281 144.836 15.5128 144.77 16.1266H143.002C143.035 15.6121 143.152 15.1399 143.35 14.7083C143.549 14.2766 143.839 13.9037 144.222 13.5885C144.604 13.2732 145.077 13.0286 145.641 12.8543C146.205 12.6807 146.86 12.5936 147.608 12.5936C149.085 12.5936 150.201 12.9585 150.957 13.6881C151.711 14.4183 152.089 15.4388 152.089 16.7486V25.2091H150.819L150.571 22.8702C150.139 23.6662 149.546 24.2843 148.791 24.7238C148.035 25.1631 147.184 25.383 146.238 25.383ZM146.362 23.8405C146.927 23.8405 147.458 23.7369 147.956 23.5294C148.454 23.3223 148.89 23.0402 149.263 22.6832C149.636 22.3268 149.927 21.9119 150.135 21.4391C150.342 20.9664 150.446 20.4647 150.446 19.9337V19.3616H147.608C146.329 19.3616 145.42 19.5856 144.881 20.033C144.341 20.4811 144.072 21.062 144.072 21.7752C144.072 22.4054 144.267 22.907 144.657 23.2806C145.047 23.6533 145.615 23.8405 146.362 23.8405Z" fill="#28334A"/>
<path d="M156.195 12.7672H157.465L157.664 14.8079C158.079 14.0948 158.639 13.5478 159.345 13.1657C160.05 12.7843 160.867 12.5936 161.797 12.5936C163.225 12.5936 164.349 13.0253 165.171 13.887C165.993 14.7497 166.403 16.0352 166.403 17.7441V25.2091H164.76V17.7445C164.76 16.5339 164.478 15.6295 163.913 15.0318C163.349 14.4344 162.561 14.1359 161.548 14.1359C160.453 14.1359 159.569 14.4511 158.897 15.0815C158.224 15.7123 157.871 16.5494 157.838 17.5949V25.2091H156.195V12.7672Z" fill="#28334A"/>
<path d="M168.772 12.7672H171.012V9.2843H172.656V12.7672H175.992V14.2605H172.656V21.7255C172.656 23.0523 173.269 23.7158 174.498 23.7158H176.241V25.209H174.299C173.22 25.209 172.402 24.9312 171.847 24.3756C171.29 23.82 171.012 23.0027 171.012 21.9247V14.2608H168.772V12.7672Z" fill="#28334A"/>
<path d="M183.385 25.209L178.23 12.7672H180.073L184.28 23.1684L188.19 12.7672H189.933L183.21 30.1857H181.467L183.385 25.209Z" fill="#28334A"/>
<path d="M191.523 28.5927H192.668C194.561 28.5927 195.507 27.5975 195.507 25.6066V22.3718C195.507 21.6255 195.618 20.9578 195.843 20.3686C196.067 19.7805 196.561 19.3196 197.324 18.9878C196.941 18.8057 196.631 18.5979 196.391 18.3655C196.15 18.1337 195.963 17.8723 195.831 17.5817C195.698 17.2917 195.611 16.9806 195.57 16.649C195.528 16.3173 195.507 15.9694 195.507 15.6035V12.3694C195.507 10.3784 194.561 9.3832 192.668 9.3832H191.523V7.79099H192.668C195.722 7.79099 197.25 9.31782 197.25 12.3697V15.6038C197.25 16.4833 197.445 17.1185 197.835 17.5083C198.225 17.8976 198.694 18.1343 199.241 18.2172V19.7595C198.694 19.8429 198.225 20.079 197.835 20.4689C197.445 20.8582 197.25 21.493 197.25 22.3722V25.6069C197.25 28.6588 195.722 30.1856 192.668 30.1856H191.523V28.5927Z" fill="#28334A"/>
<path d="M0 16.5C0 0.0616455 0 0.0616455 16.4484 0.0616455C32.8967 0.0616455 32.8967 0.0616455 32.8967 16.5C32.8967 32.9384 32.8967 32.9384 16.4484 32.9384C0 32.9384 0 32.9384 0 16.5Z" fill="url(#paint0_linear_110_284)"/>
<path d="M23.207 15.8053V17.2052C23.207 19.7348 22.4912 21.7048 21.0599 23.1145C19.6384 24.5143 17.5742 25.2094 14.8664 25.2094H10.2915C11.4945 24.691 12.0962 23.5711 12.0962 21.85V19.2374C12.0962 18.5219 12.2518 18.0137 12.5633 17.6928C12.885 17.3815 13.2584 17.1947 13.7042 17.1224V15.8786C13.2584 15.8057 12.885 15.6195 12.5633 15.3082C12.2518 14.9867 12.0962 14.4791 12.0962 13.7637V11.1503C12.0962 9.42959 11.4945 8.30979 10.2915 7.79132H14.8661C17.6051 7.79132 19.6799 8.48601 21.0905 9.87535C22.5021 11.2535 23.207 13.2341 23.207 15.8053Z" fill="white"/>
</g>
<defs>
<linearGradient id="paint0_linear_110_284" x1="16.4484" y1="0.0616455" x2="16.4484" y2="32.9384" gradientUnits="userSpaceOnUse">
<stop offset="0.0056" stop-color="#B645EE"/>
<stop offset="1" stop-color="#9B26B6"/>
</linearGradient>
<clipPath id="clip0_110_284">
<rect width="200" height="32.8767" fill="white" transform="translate(0 0.0616455)"/>
</clipPath>
</defs>
</svg>
