<svg width="327" height="327" viewBox="0 0 327 327" fill="none" xmlns="http://www.w3.org/2000/svg">
<path d="M289.994 131.916H271.619C271.619 69.7455 223.116 19.1608 163.5 19.1608C103.884 19.1608 55.3811 69.7455 55.3811 131.916H37.0059C37.0059 59.1755 93.7544 0 163.5 0C233.245 0 289.994 59.1755 289.994 131.916Z" fill="#C0576F"/>
<path d="M289.994 180.924V195.084C289.994 197.836 289.911 200.576 289.745 203.291C278.829 197.396 246.301 175.029 243.803 135.858C241.287 96.2843 208.567 55.5798 163.851 58.0323C163.736 58.0387 163.615 58.0451 163.5 58.0515C113.062 61.0277 97.5099 104.191 90.7272 129.157C78.9622 172.493 44.3322 184.455 37.0066 186.608V165.62C47.1877 160.332 66.1632 147.718 72.8118 124.904C77.2889 109.549 83.689 86.793 99.7906 68.6285C116.026 50.3171 137.25 40.3149 162.881 38.9034C163.086 38.8907 163.296 38.8843 163.501 38.8715C188.595 37.658 212.712 47.3729 231.464 66.259C249.341 84.2574 260.512 109.161 262.135 134.587C263.571 157.12 279.219 172.864 289.994 180.924Z" fill="#C0576F"/>
<path d="M286.609 225.492C285.198 231.764 283.345 237.864 281.097 243.759C261.208 236.076 238.004 216.978 227.077 196.463C214.941 173.668 211.927 150.074 211.211 138.041C210.234 121.665 202.761 106.892 191.214 98.5254C183.051 92.6049 172.909 90.6058 163.501 92.3047C156.322 93.5948 149.57 97.0436 144.448 102.53C132.588 115.266 127.172 134.606 121.935 153.307C121.583 154.565 121.232 155.81 120.881 157.043C116.142 173.866 106.548 188.863 93.1483 200.417C80.3551 211.454 56.7236 221.507 40.0408 223.915C38.7252 217.751 37.8182 211.428 37.3584 204.971C63.7815 201.42 95.8888 177.781 103.259 151.64C103.604 150.414 103.949 149.181 104.3 147.936C109.889 127.964 116.225 105.328 131.266 89.1752C139.659 80.1757 151.04 74.4723 163.501 72.9906C164.159 72.9076 164.823 72.8437 165.494 72.7862C178.466 71.7197 191.329 75.2707 201.695 82.7885C217.816 94.4704 228.361 114.672 229.542 136.854C231.61 175.578 253.129 212.75 286.609 225.492Z" fill="#C0576F"/>
<path d="M196.233 218.428C189.897 238.138 178.95 256.194 163.5 272.48C148.963 287.803 130.441 301.567 108.023 313.664C101.521 310.356 95.3382 306.479 89.5263 302.097C121.314 285.778 147.137 265.097 163.5 242.123C170.334 232.542 175.521 222.56 178.81 212.334C192.178 170.78 175.712 136.642 175.546 136.303C174.314 133.813 171.638 131.322 169.434 131.635C167.965 131.845 165.858 133.282 163.501 136.674C159.81 141.968 155.492 152.028 151.972 169.611C146.921 194.879 130.991 216.964 104.626 235.263C86.6146 247.769 64.1071 256.8 53.6514 260.537C50.5986 254.974 47.9162 249.148 45.6553 243.113C60.1985 238.182 124.439 213.452 133.993 165.703C140.092 135.211 150.005 117.66 163.501 113.426C164.632 113.074 165.788 112.812 166.969 112.646C178.306 111.043 187.65 118.969 191.879 127.534C192.708 129.215 212.034 169.286 196.233 218.428Z" fill="#C0576F"/>
<path d="M257.197 283.715C252.471 289.131 247.329 294.139 241.817 298.68C209.167 285.459 193.276 256.775 192.522 255.383L200.519 250.669L208.502 245.924C208.669 246.224 224.956 275.221 257.197 283.715Z" fill="#C0576F"/>
<path d="M276.204 255.032C273.426 260.703 270.265 266.145 266.758 271.306C253.358 269.511 239.153 260.908 224.463 245.681C212.749 233.552 204.983 221.525 204.664 221.021L212.289 215.688L219.915 210.349C227.165 221.603 253.179 253.64 276.204 255.032Z" fill="#C0576F"/>
<path d="M223.895 311.013C217.528 314.635 210.827 317.7 203.859 320.141C195.838 315.683 188.467 309.391 183.415 304.582C177.143 310.336 169.67 315.625 163.5 319.617C158.289 322.989 154.003 325.435 152.151 326.476C151.633 326.764 151.301 326.943 151.199 327L150.873 326.349L146.965 318.499L142.73 309.992C146.792 307.794 155.511 302.602 163.5 296.598C168.501 292.849 173.222 288.774 176.345 284.922L183.089 276.581L190.146 284.634C190.255 284.756 211.006 303.598 223.895 311.013Z" fill="#C0576F"/>
<path d="M173.809 195.959C170.711 203.642 167.237 210.732 163.5 217.259C147.596 245.042 127.005 262.69 111.127 273.145C96.0025 283.102 82.7813 288.243 76.1136 290.453C71.2597 285.619 66.782 280.387 62.7136 274.805C66.9225 273.534 85.2977 267.607 101.923 256.545C126.896 239.92 145.387 217.042 156.87 188.537L163.499 191.443L173.809 195.959Z" fill="#C0576F"/>
<path d="M173.809 195.959C170.711 203.642 167.237 210.732 163.5 217.259V191.443L173.809 195.959Z" fill="#BB2649"/>
<path d="M196.233 218.428C189.898 238.138 178.95 256.194 163.5 272.48V242.123C170.334 232.542 175.52 222.56 178.81 212.334C192.178 170.78 175.712 136.642 175.546 136.303C174.313 133.813 171.637 131.322 169.434 131.635C167.965 131.845 165.857 133.282 163.501 136.674V113.426C164.631 113.074 165.787 112.812 166.969 112.646C178.306 111.043 187.649 118.969 191.878 127.534C192.708 129.215 212.035 169.286 196.233 218.428Z" fill="#BB2649"/>
<path d="M190.147 284.635C190.255 284.756 211.006 303.598 223.895 311.013C217.528 314.635 210.828 317.7 203.86 320.141C195.838 315.683 188.467 309.391 183.415 304.582C177.143 310.336 169.67 315.625 163.501 319.617V296.599C168.502 292.85 173.222 288.775 176.345 284.923L183.089 276.581L190.147 284.635Z" fill="#BB2649"/>
<path d="M257.197 283.715C252.471 289.131 247.329 294.139 241.817 298.68C209.167 285.459 193.276 256.775 192.522 255.383L200.519 250.669L208.502 245.924C208.669 246.224 224.956 275.221 257.197 283.715Z" fill="#BB2649"/>
<path d="M276.204 255.032C273.426 260.703 270.265 266.145 266.758 271.306C253.358 269.511 239.153 260.908 224.463 245.681C212.749 233.552 204.983 221.525 204.664 221.021L212.289 215.688L219.915 210.349C227.165 221.603 253.179 253.64 276.204 255.032Z" fill="#BB2649"/>
<path d="M286.609 225.492C285.198 231.764 283.346 237.864 281.097 243.759C261.209 236.076 238.004 216.978 227.077 196.463C214.941 173.668 211.927 150.074 211.211 138.041C210.234 121.665 202.761 106.892 191.214 98.5254C183.051 92.6049 172.909 90.6058 163.501 92.3047V72.9906C164.159 72.9076 164.823 72.8437 165.493 72.7862C178.465 71.7197 191.329 75.2707 201.695 82.7885C217.815 94.4704 228.36 114.672 229.542 136.854C231.611 175.578 253.129 212.75 286.609 225.492Z" fill="#BB2649"/>
<path d="M163.5 19.1608V0C233.246 0 289.994 59.1755 289.994 131.916H271.619C271.619 69.7455 223.116 19.1608 163.5 19.1608Z" fill="#BB2649"/>
<path d="M289.994 180.924V195.084C289.994 197.836 289.911 200.576 289.745 203.291C278.829 197.396 246.301 175.029 243.803 135.858C241.287 96.2842 208.567 55.5798 163.851 58.0323C163.736 58.0387 163.615 58.045 163.5 58.0514V38.8708C188.595 37.6574 212.712 47.3722 231.464 66.2584C249.341 84.2568 260.512 109.16 262.134 134.586C263.571 157.12 279.219 172.864 289.994 180.924Z" fill="#BB2649"/>
</svg>
