<svg width="172" height="40" viewBox="0 0 172 40" fill="none" xmlns="http://www.w3.org/2000/svg">
<g clip-path="url(#clip0_110_261)">
<g clip-path="url(#clip1_110_261)">
<path d="M24.6658 0.00195312C16.2056 0.00195312 9.33164 6.87067 9.33164 15.3309C9.33164 23.7911 16.2056 30.6651 24.6658 30.6651C33.1261 30.6651 40 23.7911 40 15.3309C40 6.87067 33.1261 0.00195312 24.6658 0.00195312ZM24.6658 2.55132C31.7173 2.55132 37.4467 8.27938 37.4467 15.3309C37.4467 22.3824 31.7173 28.117 24.6658 28.117C17.6143 28.117 11.881 22.3824 11.881 15.3309C11.881 8.27938 17.6143 2.55132 24.6658 2.55132ZM24.6658 6.66576C19.8874 6.66576 16.0007 10.5525 16.0007 15.3309C15.9806 16.2397 17.3542 16.2397 17.334 15.3309C17.334 11.273 20.6079 7.99907 24.6658 7.99907C28.7237 7.99907 31.9989 11.273 31.9989 15.3309C31.9788 16.2397 33.3524 16.2397 33.3322 15.3309C33.3322 10.5525 29.4442 6.66576 24.6658 6.66576ZM24.6658 9.33239C23.757 9.31223 23.757 10.6859 24.6658 10.6657C27.251 10.6657 29.331 12.7457 29.331 15.3309C29.331 17.9219 28.5581 20.329 27.2256 22.3346C26.6455 23.0884 27.8592 23.898 28.3324 23.0728C29.8048 20.8565 30.6643 18.1885 30.6643 15.3309C30.6643 12.0252 27.9715 9.33239 24.6658 9.33239ZM22.0461 10.016C21.9095 10.0235 21.8082 10.0535 21.718 10.1059C19.8958 11.1359 18.6673 13.0943 18.6673 15.331C18.6673 16.3262 17.9493 17.143 17.0085 17.3049C16.1116 17.441 16.3444 18.7909 17.2351 18.6187C18.8059 18.3484 20.0006 16.9708 20.0006 15.331C20.0006 13.5818 20.9562 12.0681 22.3729 11.2673C22.9669 10.9427 22.7551 10.0413 22.0461 10.016L22.0461 10.016ZM24.6658 12.0002C22.8328 12.0002 21.3352 13.4979 21.3352 15.3309C21.3352 17.374 20.0277 19.1048 18.2103 19.7409C17.2792 19.9846 17.7669 21.384 18.6478 20.9961C20.9891 20.1766 22.6685 17.9434 22.6685 15.3309C22.6685 14.2185 23.5534 13.3336 24.6658 13.3336C25.7783 13.3336 26.6645 14.2185 26.6645 15.3309C26.6836 16.2003 27.9785 16.2003 27.9978 15.3309C27.9978 13.4979 26.4988 12.0002 24.6658 12.0002ZM24.6567 14.6577C24.2886 14.6602 23.993 14.9628 23.9966 15.3309C23.9966 18.0662 22.5087 20.4473 20.2962 21.7096C19.4453 22.1255 20.1635 23.3859 20.955 22.8658C23.5704 21.3737 25.3299 18.5519 25.3299 15.3309C25.3332 14.9576 25.03 14.6541 24.6567 14.6577ZM26.9783 17.379C26.6543 17.3967 26.4084 17.6025 26.339 17.8855C25.8317 19.8155 24.761 21.5183 23.313 22.8072C22.5674 23.3914 23.5327 24.4745 24.1984 23.8007C25.8382 22.3409 27.0538 20.4095 27.6293 18.2201C27.7429 17.8056 27.441 17.3942 26.9783 17.379ZM11.5126 25.5441L10.6103 26.4477L13.5503 29.393L14.4565 28.4867C13.3575 27.6314 12.3681 26.6431 11.5126 25.5441ZM8.65722 26.6652C8.48339 26.6677 8.31754 26.7385 8.19499 26.8617L1.02073 34.036C-0.340243 35.397 -0.340243 37.6163 1.02073 38.9773C2.3817 40.3382 4.59972 40.3382 5.96069 38.9773L13.1363 31.803C13.3948 31.5429 13.3948 31.123 13.1363 30.863L9.14028 26.8617C9.01264 26.7332 8.83826 26.6624 8.65722 26.6652H8.65722Z" fill="#2C363F"/>
</g>
<path d="M63.1225 24.772H57.3585L56.4345 27.5H52.4965L58.0845 12.056H62.4405L68.0285 27.5H64.0465L63.1225 24.772ZM62.1545 21.868L60.2405 16.214L58.3485 21.868H62.1545ZM77.2092 15.092C78.6466 15.092 79.7906 15.5613 80.6412 16.5C81.5066 17.424 81.9392 18.7 81.9392 20.328V27.5H78.1992V20.834C78.1992 20.0127 77.9866 19.3747 77.5612 18.92C77.1359 18.4653 76.5639 18.238 75.8452 18.238C75.1266 18.238 74.5546 18.4653 74.1292 18.92C73.7039 19.3747 73.4912 20.0127 73.4912 20.834V27.5H69.7292V15.224H73.4912V16.852C73.8726 16.3093 74.3859 15.884 75.0312 15.576C75.6766 15.2533 76.4026 15.092 77.2092 15.092ZM91.3955 24.31V27.5H89.4815C88.1175 27.5 87.0541 27.17 86.2915 26.51C85.5288 25.8353 85.1475 24.7427 85.1475 23.232V18.348H83.6515V15.224H85.1475V12.232H88.9095V15.224H91.3735V18.348H88.9095V23.276C88.9095 23.6427 88.9975 23.9067 89.1735 24.068C89.3495 24.2293 89.6428 24.31 90.0535 24.31H91.3955ZM95.383 13.948C94.723 13.948 94.1803 13.7573 93.755 13.376C93.3443 12.98 93.139 12.496 93.139 11.924C93.139 11.3373 93.3443 10.8533 93.755 10.472C94.1803 10.076 94.723 9.878 95.383 9.878C96.0283 9.878 96.5563 10.076 96.967 10.472C97.3923 10.8533 97.605 11.3373 97.605 11.924C97.605 12.496 97.3923 12.98 96.967 13.376C96.5563 13.7573 96.0283 13.948 95.383 13.948ZM97.253 15.224V27.5H93.491V15.224H97.253ZM99.2312 21.34C99.2312 20.0787 99.4659 18.9713 99.9352 18.018C100.419 17.0647 101.072 16.3313 101.893 15.818C102.715 15.3047 103.631 15.048 104.643 15.048C105.45 15.048 106.183 15.2167 106.843 15.554C107.518 15.8913 108.046 16.346 108.427 16.918V11.22H112.189V27.5H108.427V25.74C108.075 26.3267 107.569 26.796 106.909 27.148C106.264 27.5 105.509 27.676 104.643 27.676C103.631 27.676 102.715 27.4193 101.893 26.906C101.072 26.378 100.419 25.6373 99.9352 24.684C99.4659 23.716 99.2312 22.6013 99.2312 21.34ZM108.427 21.362C108.427 20.4233 108.163 19.6827 107.635 19.14C107.122 18.5973 106.491 18.326 105.743 18.326C104.995 18.326 104.357 18.5973 103.829 19.14C103.316 19.668 103.059 20.4013 103.059 21.34C103.059 22.2787 103.316 23.0267 103.829 23.584C104.357 24.1267 104.995 24.398 105.743 24.398C106.491 24.398 107.122 24.1267 107.635 23.584C108.163 23.0413 108.427 22.3007 108.427 21.362ZM126.483 21.164C126.483 21.516 126.461 21.8827 126.417 22.264H117.903C117.962 23.0267 118.204 23.6133 118.629 24.024C119.069 24.42 119.604 24.618 120.235 24.618C121.174 24.618 121.826 24.222 122.193 23.43H126.197C125.992 24.2367 125.618 24.9627 125.075 25.608C124.547 26.2533 123.88 26.7593 123.073 27.126C122.266 27.4927 121.364 27.676 120.367 27.676C119.164 27.676 118.094 27.4193 117.155 26.906C116.216 26.3927 115.483 25.6593 114.955 24.706C114.427 23.7527 114.163 22.638 114.163 21.362C114.163 20.086 114.42 18.9713 114.933 18.018C115.461 17.0647 116.194 16.3313 117.133 15.818C118.072 15.3047 119.15 15.048 120.367 15.048C121.555 15.048 122.611 15.2973 123.535 15.796C124.459 16.2947 125.178 17.006 125.691 17.93C126.219 18.854 126.483 19.932 126.483 21.164ZM122.633 20.174C122.633 19.5287 122.413 19.0153 121.973 18.634C121.533 18.2527 120.983 18.062 120.323 18.062C119.692 18.062 119.157 18.2453 118.717 18.612C118.292 18.9787 118.028 19.4993 117.925 20.174H122.633ZM135.31 24.31V27.5H133.396C132.032 27.5 130.968 27.17 130.206 26.51C129.443 25.8353 129.062 24.7427 129.062 23.232V18.348H127.566V15.224H129.062V12.232H132.824V15.224H135.288V18.348H132.824V23.276C132.824 23.6427 132.912 23.9067 133.088 24.068C133.264 24.2293 133.557 24.31 133.968 24.31H135.31ZM148.977 21.164C148.977 21.516 148.955 21.8827 148.911 22.264H140.397C140.456 23.0267 140.698 23.6133 141.123 24.024C141.563 24.42 142.098 24.618 142.729 24.618C143.668 24.618 144.32 24.222 144.687 23.43H148.691C148.486 24.2367 148.112 24.9627 147.569 25.608C147.041 26.2533 146.374 26.7593 145.567 27.126C144.76 27.4927 143.858 27.676 142.861 27.676C141.658 27.676 140.588 27.4193 139.649 26.906C138.71 26.3927 137.977 25.6593 137.449 24.706C136.921 23.7527 136.657 22.638 136.657 21.362C136.657 20.086 136.914 18.9713 137.427 18.018C137.955 17.0647 138.688 16.3313 139.627 15.818C140.566 15.3047 141.644 15.048 142.861 15.048C144.049 15.048 145.105 15.2973 146.029 15.796C146.953 16.2947 147.672 17.006 148.185 17.93C148.713 18.854 148.977 19.932 148.977 21.164ZM145.127 20.174C145.127 19.5287 144.907 19.0153 144.467 18.634C144.027 18.2527 143.477 18.062 142.817 18.062C142.186 18.062 141.651 18.2453 141.211 18.612C140.786 18.9787 140.522 19.4993 140.419 20.174H145.127ZM150.214 21.362C150.214 20.086 150.47 18.9713 150.984 18.018C151.512 17.0647 152.238 16.3313 153.162 15.818C154.1 15.3047 155.171 15.048 156.374 15.048C157.914 15.048 159.197 15.4513 160.224 16.258C161.265 17.0647 161.947 18.2013 162.27 19.668H158.266C157.928 18.7293 157.276 18.26 156.308 18.26C155.618 18.26 155.068 18.5313 154.658 19.074C154.247 19.602 154.042 20.3647 154.042 21.362C154.042 22.3593 154.247 23.1293 154.658 23.672C155.068 24.2 155.618 24.464 156.308 24.464C157.276 24.464 157.928 23.9947 158.266 23.056H162.27C161.947 24.4933 161.265 25.6227 160.224 26.444C159.182 27.2653 157.899 27.676 156.374 27.676C155.171 27.676 154.1 27.4193 153.162 26.906C152.238 26.3927 151.512 25.6593 150.984 24.706C150.47 23.7527 150.214 22.638 150.214 21.362ZM171.124 24.31V27.5H169.21C167.846 27.5 166.783 27.17 166.02 26.51C165.257 25.8353 164.876 24.7427 164.876 23.232V18.348H163.38V15.224H164.876V12.232H168.638V15.224H171.102V18.348H168.638V23.276C168.638 23.6427 168.726 23.9067 168.902 24.068C169.078 24.2293 169.371 24.31 169.782 24.31H171.124Z" fill="#2C363F"/>
</g>
<defs>
<clipPath id="clip0_110_261">
<rect width="172" height="40" fill="white"/>
</clipPath>
<clipPath id="clip1_110_261">
<rect width="40" height="40" fill="white"/>
</clipPath>
</defs>
</svg>
